<svg xmlns="http://www.w3.org/2000/svg" viewBox="0 0 256 256" role="img" aria-labelledby="title desc">
  <title id="title">Cybersecurity do Zero</title>
  <desc id="desc">Escudo minimalista com cadeado e trilhas de circuito em azul ciano.</desc>

  <defs>
    <linearGradient id="cyanGradient" x1="36" y1="28" x2="220" y2="228" gradientUnits="userSpaceOnUse">
      <stop offset="0" stop-color="#58F3FF"/>
      <stop offset="0.5" stop-color="#00C2E0"/>
      <stop offset="1" stop-color="#007FA8"/>
    </linearGradient>

    <linearGradient id="steelGradient" x1="96" y1="84" x2="166" y2="176" gradientUnits="userSpaceOnUse">
      <stop offset="0" stop-color="#FFFFFF"/>
      <stop offset="0.48" stop-color="#D9E3E8"/>
      <stop offset="1" stop-color="#8FA3AE"/>
    </linearGradient>

    <radialGradient id="shieldFill" cx="0" cy="0" r="1" gradientTransform="translate(87 66) rotate(50) scale(190)">
      <stop offset="0" stop-color="#173643"/>
      <stop offset="0.6" stop-color="#0C222D"/>
      <stop offset="1" stop-color="#06151D"/>
    </radialGradient>

    <filter id="softGlow" x="-40%" y="-40%" width="180%" height="180%">
      <feGaussianBlur stdDeviation="4" result="blur"/>
      <feColorMatrix in="blur" type="matrix"
        values="0 0 0 0 0
                0 0 0 0 0.82
                0 0 0 0 1
                0 0 0 0.75 0"/>
      <feMerge>
        <feMergeNode/>
        <feMergeNode in="SourceGraphic"/>
      </feMerge>
    </filter>
  </defs>

  <path
    d="M128 18 216 50 V112 C216 172 181 218 128 238 C75 218 40 172 40 112 V50 Z"
    fill="url(#shieldFill)"
    stroke="url(#cyanGradient)"
    stroke-width="8"
    stroke-linejoin="round"
    filter="url(#softGlow)"
  />

  <path
    d="M128 34 199 60 V111 C199 160 172 199 128 218 C84 199 57 160 57 111 V60 Z"
    fill="none"
    stroke="#4AE8F5"
    stroke-opacity="0.25"
    stroke-width="2"
  />

  <g fill="none" stroke="#35E6F5" stroke-width="6" stroke-linecap="round" stroke-linejoin="round">
    <path d="M72 75H100V99"/>
    <path d="M67 111H97"/>
    <path d="M72 147H100V173"/>
  </g>

  <g fill="#58F3FF">
    <circle cx="72" cy="75" r="6"/>
    <circle cx="67" cy="111" r="6"/>
    <circle cx="72" cy="147" r="6"/>
    <circle cx="100" cy="173" r="6"/>
  </g>

  <g fill="none" stroke="#19C7DF" stroke-width="5" stroke-linecap="round" stroke-linejoin="round" opacity="0.85">
    <path d="M184 83H165V101"/>
    <path d="M189 132H164"/>
    <path d="M183 169H166V181"/>
  </g>

  <g fill="#19C7DF" opacity="0.9">
    <circle cx="184" cy="83" r="5"/>
    <circle cx="189" cy="132" r="5"/>
    <circle cx="183" cy="169" r="5"/>
  </g>

  <path
    d="M100 119V101 C100 84 112 72 128 72 C144 72 156 84 156 101 V119"
    fill="none"
    stroke="url(#steelGradient)"
    stroke-width="12"
    stroke-linecap="round"
  />

  <rect x="87" y="113" width="82" height="68" rx="15" fill="url(#steelGradient)" stroke="#FFFFFF" stroke-opacity="0.35" stroke-width="2"/>
  <rect x="94" y="120" width="68" height="54" rx="11" fill="none" stroke="#617681" stroke-opacity="0.28" stroke-width="2"/>

  <circle cx="128" cy="144" r="10" fill="#0B2631"/>
  <path d="M123 151H133L136 169H120Z" fill="#0B2631"/>

  <circle cx="100" cy="111" r="6" fill="#35E6F5"/>
  <circle cx="164" cy="132" r="5" fill="#19C7DF"/>
</svg>
